<?xml version="1.0" encoding="UTF-8"?>
<svg version="1.1" xmlns="http://www.w3.org/2000/svg" width="100" height="100">
<path d="M0 0 C0.845625 -0.01289063 1.69125 -0.02578125 2.5625 -0.0390625 C6.12830508 0.93239081 7.04837329 2.51710828 9 5.625 C9.34288103 8.54889032 9.46951879 11.07769707 9.390625 13.98828125 C9.38496521 14.78026413 9.37930542 15.57224701 9.37347412 16.38822937 C9.35117308 18.90528094 9.30099139 21.42088243 9.25 23.9375 C9.22992675 25.64906791 9.21167742 27.36065824 9.1953125 29.07226562 C9.15132925 33.25706485 9.08234769 37.440787 9 41.625 C10.06436279 41.59881592 11.12872559 41.57263184 12.2253418 41.5456543 C16.18541327 41.45495224 20.14539351 41.39767911 24.10620117 41.3503418 C25.81827245 41.32524286 27.53023704 41.29115571 29.24194336 41.24780273 C31.70713645 41.18694261 34.17090985 41.15874568 36.63671875 41.13671875 C37.77919319 41.09800911 37.77919319 41.09800911 38.94474792 41.05851746 C43.01166994 41.05638536 44.77209238 41.44140101 47.98120117 44.02661133 C49.93421063 46.54032274 50.68768357 47.51589493 50.625 50.625 C50.64433594 51.5840625 50.64433594 51.5840625 50.6640625 52.5625 C49.57988453 55.92982921 47.73318554 57.42318637 45 59.625 C42.00808557 60.06357267 39.60985115 60.21401776 36.63671875 60.11328125 C35.84473587 60.10620651 35.05275299 60.09913177 34.23677063 60.09184265 C31.71936611 60.06396244 29.20422644 60.001242 26.6875 59.9375 C24.9759437 59.91240861 23.26435235 59.88959691 21.55273438 59.86914062 C17.36762346 59.81415747 13.18419504 59.72793418 9 59.625 C9.02618408 60.68936279 9.05236816 61.75372559 9.0793457 62.8503418 C9.17004776 66.81041327 9.22732089 70.77039351 9.2746582 74.73120117 C9.29975714 76.44327245 9.33384429 78.15523704 9.37719727 79.86694336 C9.43805739 82.33213645 9.46625432 84.79590985 9.48828125 87.26171875 C9.51408768 88.02336838 9.5398941 88.78501801 9.56648254 89.56974792 C9.56861464 93.63666994 9.18359899 95.39709238 6.59838867 98.60620117 C4.08467726 100.55921063 3.10910507 101.31268357 0 101.25 C-0.9590625 101.26933594 -0.9590625 101.26933594 -1.9375 101.2890625 C-5.30482921 100.20488453 -6.79818637 98.35818554 -9 95.625 C-9.43857267 92.63308557 -9.58901776 90.23485115 -9.48828125 87.26171875 C-9.48120651 86.46973587 -9.47413177 85.67775299 -9.46684265 84.86177063 C-9.43896244 82.34436611 -9.376242 79.82922644 -9.3125 77.3125 C-9.28740861 75.6009437 -9.26459691 73.88935235 -9.24414062 72.17773438 C-9.18915747 67.99262346 -9.10293418 63.80919504 -9 59.625 C-10.06436279 59.64594727 -11.12872559 59.66689453 -12.2253418 59.68847656 C-16.18549066 59.76103962 -20.1455811 59.80685851 -24.10620117 59.84472656 C-25.81821586 59.86480505 -27.53016228 59.89207392 -29.24194336 59.92675781 C-31.70704008 59.97544401 -34.1712279 59.99800573 -36.63671875 60.015625 C-37.77919319 60.04659271 -37.77919319 60.04659271 -38.94474792 60.07818604 C-42.67218984 60.07974933 -44.79483032 59.75383802 -47.98120117 57.75292969 C-50.39252211 55.21125919 -50.67775088 54.08545797 -50.625 50.625 C-50.63789062 49.779375 -50.65078125 48.93375 -50.6640625 48.0625 C-49.69260919 44.49669492 -48.10789172 43.57662671 -45 41.625 C-42.07610968 41.28211897 -39.54730293 41.15548121 -36.63671875 41.234375 C-35.44874443 41.24286469 -35.44874443 41.24286469 -34.23677063 41.25152588 C-31.71971906 41.27382692 -29.20411757 41.32400861 -26.6875 41.375 C-24.97593209 41.39507325 -23.26434176 41.41332258 -21.55273438 41.4296875 C-17.36793515 41.47367075 -13.184213 41.54265231 -9 41.625 C-9.02094727 40.56063721 -9.04189453 39.49627441 -9.06347656 38.3996582 C-9.13603962 34.43950934 -9.18185851 30.4794189 -9.21972656 26.51879883 C-9.23980505 24.80678414 -9.26707392 23.09483772 -9.30175781 21.38305664 C-9.35044401 18.91795992 -9.37300573 16.4537721 -9.390625 13.98828125 C-9.41127014 13.22663162 -9.43191528 12.46498199 -9.45318604 11.68025208 C-9.45474933 7.95281016 -9.12883802 5.83016968 -7.12792969 2.64379883 C-4.58625919 0.23247789 -3.46045797 -0.05275088 0 0 Z " fill="#000000" transform="translate(50,-0.625)"/>
</svg>
